<?xml version="1.0" encoding="utf-8"?>
<!-- Generator: Adobe Illustrator 25.4.1, SVG Export Plug-In . SVG Version: 6.00 Build 0)  -->
<svg version="1.1" id="Layer_1" xmlns="http://www.w3.org/2000/svg" xmlns:xlink="http://www.w3.org/1999/xlink" x="0px" y="0px"
	 viewBox="0 0 20 20" style="enable-background:new 0 0 20 20;" xml:space="preserve">
<style type="text/css">
	.st0{fill:#ED3E2F;}
	.st1{opacity:0.7;fill:#ED3E2F;enable-background:new    ;}
</style>
<g>
	<path class="st0" d="M4.2,2.7c0,2.6,1.6,4.2,4.9,5l3.5,0.8c3.1,0.7,5,2.4,5,5.3c0,1.2-0.4,2.4-1.2,3.4c0-2.8-1.5-4.4-5.1-5.3
		l-3.4-0.8C5.2,10.6,3.1,9.1,3.1,6C3.1,4.8,3.5,3.7,4.2,2.7"/>
	<path class="st1" d="M14.3,13.1c1.5,0.9,2.2,2.2,2.2,4.1c-1.2,1.5-3.4,2.4-5.9,2.4c-4.3,0-7.3-2.1-7.9-5.7h4.1
		c0.5,1.7,1.9,2.4,3.8,2.4C12.8,16.4,14.3,15.2,14.3,13.1"/>
	<path class="st1" d="M6.3,6.6c-0.7-0.4-1.2-1-1.6-1.7C4.4,4.2,4.2,3.5,4.2,2.7C5.4,1.1,7.5,0.2,10,0.2c4.4,0,6.9,2.3,7.5,5.4h-4
		C13.1,4.4,12,3.4,10,3.4C7.9,3.5,6.4,4.7,6.3,6.6"/>
</g>
</svg>
